
<svg xmlns="http://www.w3.org/2000/svg" version="1.1" xmlns:xlink="http://www.w3.org/1999/xlink" preserveAspectRatio="none" x="0px" y="0px" width="720px" height="200px" viewBox="0 0 720 200">
<defs>
<g id="knot_0_Layer0_0_FILL">
<path fill="#FFCC66" stroke="none" d="
M 17.6 2.3
Q 15.3 0 12.05 0 8.8 0 6.5 2.3 4.2 4.6 4.2 7.85 4.2 10.55 5.8 12.65 6.1 13 6.5 13.4 6.95 13.85 7.4 14.2 9.4 15.7 12.05 15.7 14.5 15.7 16.45 14.4 17.05 13.95 17.6 13.4 17.9 13.1 18.15 12.85 19.9 10.7 19.9 7.85 19.9 4.6 17.6 2.3
M 21.1 19.15
Q 20.75 18.15 20.35 17.3 19.75 17.85 19.1 18.35 18.45 18.8 17.75 19.15 15.15 20.4 12.1 20.4 8.75 20.4 6.1 18.95 5.35 18.5 4.65 18 4.1 17.55 3.5 17 3.5 17.1 3.45 17.15 3.15 18 2.85 18.95 0 26.9 0 37.75 0 44.7 1.2 50.5 3.1 51 5.1 51.35
L 4.15 33.6 6.3 51.55
Q 8.35 51.8 10.5 51.9
L 9.85 27.85 12 51.9
Q 12.15 51.9 12.3 51.9 13.8 51.9 15.3 51.8
L 15.6 42.9 16.4 51.75
Q 16.9 51.7 17.4 51.65
L 18.1 27.15 18.7 51.45
Q 20.75 51.15 22.65 50.65 23.8 44.8 23.8 37.75 23.8 27.05 21.1 19.15 Z"/>
</g>

<g id="rug_0_Layer0_0_FILL">
<path fill="#FFCC66" stroke="none" d="
M 645.95 4
Q 645.95 0 641.95 0
L 4 0
Q 0 0 0 4
L 0 126
Q 0 130 4 130
L 641.95 130
Q 645.95 130 645.95 126
L 645.95 4
M 620 18.1
L 630.15 18.1 599.6 73.85 599.6 112.05 590.25 112.05 590.25 73.85 559.7 18.1 569.85 18.1 594.95 65 620 18.1
M 549.35 33.6
Q 551.45 38.8 551.45 45.15 551.45 53.2 548.1 59.45 547.85 59.85 547.6 60.3 546.5 62.15 545.1 63.75 542.35 66.85 538.5 68.95 536.2 70.15 533.7 70.95
L 555.4 112.05 544.25 112.05 524.25 72.3
Q 524.2 72.3 524.15 72.3
L 496.2 72.3 496.2 112.05 486.9 112.05 486.9 18.05 524.15 18.05
Q 532.3 18.05 538.5 21.4 541.95 23.25 544.55 26 546.6 28.2 548.1 30.95 548.8 32.25 549.35 33.6
M 476.7 26.75
L 448.2 26.75 448.2 112.05 438.9 112.05 438.9 26.75 410.4 26.75 410.4 18.1 476.7 18.1 476.7 26.75
M 373.7 17.15
Q 378.65 17.15 383.6 18.25 388.45 19.3 393.2 21.55 397.9 23.65 402.55 26.95
L 397.1 34.25
Q 391 30 385.2 27.9 379.4 25.8 373.7 25.8 362.2 25.8 355.85 30.65 349.55 35.5 349.55 44.25
L 349.55 44.3
Q 349.55 49.6 352.65 52.7 355.85 55.75 360.6 57.25 365.2 58.75 373.35 60.35 373.65 60.4 373.95 60.45 374.2 60.55 374.55 60.6 374.9 60.7 375.3 60.8 375.65 60.85 376.05 60.9 384.85 62.75 390.75 65.1 396.65 67.4 400.55 72.35 404.45 77.25 404.45 85.7
L 404.45 85.8
Q 404.45 94.4 400.4 100.55 396.3 106.6 388.6 109.8 380.9 113 369.9 113 363.2 113 357.05 111.7 351 110.4 345.8 107.8 340.5 105.25 335.9 101.4
L 341.55 94
Q 347.4 99.2 354.5 101.75 361.6 104.35 369.9 104.35 382 104.35 388.65 99.6 395.3 94.8 395.3 86.15
L 395.3 86.05
Q 395.3 80.7 392.4 77.5 389.55 74.25 385 72.65 380.45 71 373.25 69.65 373.05 69.55 372.85 69.55 372.6 69.5 372.3 69.5
L 370.45 69.05
Q 360.6 67.2 354.6 65.2 348.7 63.15 344.55 58.3 340.35 53.35 340.35 44.7
L 340.35 44.65
Q 340.35 35.95 344.3 29.75 348.2 23.55 355.65 20.35 363.2 17.15 373.7 17.15
M 323.05 18.1
L 323.05 26.75 272 26.75 272 61.05 315.95 61.05 315.95 69.7 272 69.7 272 103.4 323.05 103.4 323.05 112.05 262.7 112.05 262.7 18.1 323.05 18.1
M 216.7 18.1
Q 225.15 18.1 231.5 21.7 235 23.65 237.7 26.45 239.85 28.8 241.5 31.8 244.95 38.35 244.95 46.95 244.95 55.45 241.5 61.95 240.1 64.4 238.4 66.45 235.5 69.8 231.5 72.05 225.15 75.6 216.7 75.6
L 189.65 75.6 189.65 112.05 180.35 112.05 180.35 18.1 216.7 18.1
M 84.5 18.1
L 84.5 26.75 56 26.75 56 112.05 46.7 112.05 46.7 26.75 18.2 26.75 18.2 18.1 84.5 18.1
M 120.3 18.1
L 131.55 18.1 166.2 112.05 155.85 112.05 147.75 89.2 104.1 89.2 96 112.05 85.7 112.05 120.3 18.1
M 107.75 79.8
L 144.15 79.8 125.95 32.65 107.75 79.8
M 235.65 46.5
Q 235.65 40.55 233.25 36 232.1 33.95 230.55 32.3 228.7 30.35 226.3 29 222.15 26.65 216.7 26.45
L 189.65 26.45 189.65 66.45 216.7 66.45
Q 222.15 66.3 226.3 64 229.05 62.4 231.05 60.1 232.3 58.65 233.25 57 235.65 52.45 235.65 46.5
M 537.15 31.55
Q 535.3 29.7 532.9 28.4 528.75 26.2 523.3 26
L 496.25 26 496.25 63.75 523.3 63.75
Q 528.75 63.6 532.9 61.4 535.65 59.9 537.65 57.75 538.9 56.35 539.85 54.8 542.25 50.5 542.25 44.95 542.25 39.3 539.85 35 538.7 33.1 537.15 31.55 Z"/>
</g>
</defs>

<g transform="matrix( 1, 0, 0, 1, 43.45,135.25) ">
<g transform="matrix( 1, 0, 0, 1, 0,0) ">
<use xlink:href="#knot_0_Layer0_0_FILL"/>
</g>
</g>

<g transform="matrix( 1, 0, 0, 1, 93.45,135.25) ">
<g transform="matrix( 1, 0, 0, 1, 0,0) ">
<use xlink:href="#knot_0_Layer0_0_FILL"/>
</g>
</g>

<g transform="matrix( 1, 0, 0, 1, 143.45,135.25) ">
<g transform="matrix( 1, 0, 0, 1, 0,0) ">
<use xlink:href="#knot_0_Layer0_0_FILL"/>
</g>
</g>

<g transform="matrix( 1, 0, 0, 1, 193.45,135.25) ">
<g transform="matrix( 1, 0, 0, 1, 0,0) ">
<use xlink:href="#knot_0_Layer0_0_FILL"/>
</g>
</g>

<g transform="matrix( 1, 0, 0, 1, 243.45,135.25) ">
<g transform="matrix( 1, 0, 0, 1, 0,0) ">
<use xlink:href="#knot_0_Layer0_0_FILL"/>
</g>
</g>

<g transform="matrix( 1, 0, 0, 1, 293.45,135.25) ">
<g transform="matrix( 1, 0, 0, 1, 0,0) ">
<use xlink:href="#knot_0_Layer0_0_FILL"/>
</g>
</g>

<g transform="matrix( 1, 0, 0, 1, 343.45,135.25) ">
<g transform="matrix( 1, 0, 0, 1, 0,0) ">
<use xlink:href="#knot_0_Layer0_0_FILL"/>
</g>
</g>

<g transform="matrix( 1, 0, 0, 1, 393.45,135.25) ">
<g transform="matrix( 1, 0, 0, 1, 0,0) ">
<use xlink:href="#knot_0_Layer0_0_FILL"/>
</g>
</g>

<g transform="matrix( 1, 0, 0, 1, 443.45,135.25) ">
<g transform="matrix( 1, 0, 0, 1, 0,0) ">
<use xlink:href="#knot_0_Layer0_0_FILL"/>
</g>
</g>

<g transform="matrix( 1, 0, 0, 1, 493.45,135.25) ">
<g transform="matrix( 1, 0, 0, 1, 0,0) ">
<use xlink:href="#knot_0_Layer0_0_FILL"/>
</g>
</g>

<g transform="matrix( 1, 0, 0, 1, 543.45,135.25) ">
<g transform="matrix( 1, 0, 0, 1, 0,0) ">
<use xlink:href="#knot_0_Layer0_0_FILL"/>
</g>
</g>

<g transform="matrix( 1, 0, 0, 1, 593.45,135.25) ">
<g transform="matrix( 1, 0, 0, 1, 0,0) ">
<use xlink:href="#knot_0_Layer0_0_FILL"/>
</g>
</g>

<g transform="matrix( 1, 0, 0, 1, 643.45,135.25) ">
<g transform="matrix( 1, 0, 0, 1, 0,0) ">
<use xlink:href="#knot_0_Layer0_0_FILL"/>
</g>
</g>

<g transform="matrix( 1, 0, 0, 1, 33,12) ">
<g transform="matrix( 1, 0, 0, 1, 0,0) ">
<use xlink:href="#rug_0_Layer0_0_FILL"/>
</g>
</g>
</svg>
