
<svg xmlns="http://www.w3.org/2000/svg" version="1.1" xmlns:xlink="http://www.w3.org/1999/xlink" preserveAspectRatio="none" x="0px" y="0px" width="680px" height="110px" viewBox="0 0 680 110">
<defs>
<g id="tapestry_0_Layer0_0_FILL">
<path fill="#FFCC66" stroke="none" d="
M 41.75 10.6
L 73.25 10.6 73.25 1.05 0 1.05 0 10.6 31.5 10.6 31.5 104.8 41.75 104.8 41.75 10.6
M 125.2 1.05
L 112.8 1.05 74.55 104.8 85.95 104.8 94.9 79.6 143.1 79.6 152.05 104.8 163.45 104.8 125.2 1.05
M 139.1 69.2
L 98.9 69.2 119 17.15 139.1 69.2
M 250.45 32.9
Q 250.45 23.4 246.6 16.2 244.8 12.9 242.4 10.3 239.45 7.2 235.6 5.05 228.55 1.05 219.25 1.05
L 179.1 1.05 179.1 104.8 189.35 104.8 189.35 64.55 219.25 64.55
Q 228.55 64.55 235.6 60.65 240 58.15 243.2 54.45 245.1 52.2 246.6 49.5 250.45 42.3 250.45 32.9
M 229.85 13.1
Q 232.5 14.6 234.55 16.75 236.25 18.55 237.5 20.85 240.15 25.85 240.15 32.45 240.15 39 237.5 44 236.45 45.85 235.1 47.45 232.9 50 229.85 51.75 225.25 54.3 219.25 54.45
L 189.35 54.45 189.35 10.3 219.25 10.3
Q 225.25 10.5 229.85 13.1
M 336.7 10.6
L 336.7 1.05 270.05 1.05 270.05 104.8 336.7 104.8 336.7 95.25 280.3 95.25 280.3 58.05 328.85 58.05 328.85 48.5 280.3 48.5 280.3 10.6 336.7 10.6
M 424.5 10.85
Q 419.35 7.2 414.15 4.85 408.9 2.4 403.55 1.2 398.1 0 392.6 0 381 0 372.7 3.55 364.45 7.1 360.15 13.95 355.8 20.75 355.8 30.4
L 355.8 30.45
Q 355.8 40 360.45 45.45 365 50.8 371.55 53.05 378.15 55.3 389.05 57.35
L 391.1 57.8
Q 391.4 57.85 391.7 57.9 391.9 57.9 392.1 58 400.05 59.5 405.1 61.3 410.1 63.05 413.3 66.65 416.45 70.2 416.45 76.1
L 416.45 76.2
Q 416.45 85.75 409.15 91.05 401.8 96.3 388.45 96.3 379.25 96.3 371.4 93.45 363.55 90.6 357.1 84.9
L 350.85 93.05
Q 355.95 97.3 361.8 100.15 367.55 103 374.25 104.45 381 105.85 388.45 105.85 400.55 105.85 409.1 102.35 417.6 98.8 422.1 92.1 426.6 85.3 426.6 75.85
L 426.6 75.7
Q 426.6 66.4 422.3 61 417.95 55.5 411.45 52.95 404.95 50.35 395.2 48.35 394.75 48.3 394.4 48.2 393.95 48.1 393.55 48 393.2 47.95 392.9 47.85 392.55 47.8 392.25 47.7 383.25 45.95 378.15 44.3 372.9 42.65 369.4 39.3 365.95 35.85 365.95 30
L 365.95 29.95
Q 365.95 20.25 372.9 14.9 379.9 9.55 392.6 9.55 398.9 9.55 405.3 11.9 411.75 14.2 418.45 18.9
L 424.5 10.85
M 506.4 10.6
L 506.4 1.05 433.15 1.05 433.15 10.6 464.65 10.6 464.65 104.8 474.9 104.8 474.9 10.6 506.4 10.6
M 585.2 15.25
Q 583.55 12.2 581.3 9.8 578.45 6.75 574.65 4.7 567.8 1 558.8 1
L 517.65 1 517.65 104.8 527.9 104.8 527.9 60.9 558.8 60.9
Q 558.85 60.9 558.9 60.9
L 581 104.8 593.3 104.8 569.35 59.4
Q 572.1 58.55 574.6 57.2 578.85 54.9 581.9 51.45 583.45 49.7 584.7 47.65 584.95 47.15 585.2 46.7 588.9 39.85 588.9 30.95 588.9 23.9 586.6 18.2 586 16.7 585.2 15.25
M 568.45 12.45
Q 571.1 13.85 573.15 15.9 574.85 17.6 576.1 19.75 578.75 24.45 578.75 30.7 578.75 36.85 576.1 41.6 575.05 43.3 573.7 44.85 571.5 47.25 568.45 48.9 563.85 51.3 557.85 51.45
L 527.95 51.45 527.95 9.8 557.85 9.8
Q 563.85 10 568.45 12.45
M 675.85 1.05
L 664.65 1.05 636.95 52.85 609.25 1.05 598.05 1.05 631.8 62.65 631.8 104.8 642.1 104.8 642.1 62.65 675.85 1.05 Z"/>
</g>
</defs>

<g transform="matrix( 1, 0, 0, 1, 2,2) ">
<g transform="matrix( 1, 0, 0, 1, 0,0) ">
<use xlink:href="#tapestry_0_Layer0_0_FILL"/>
</g>
</g>
</svg>
